<svg id="Layer_1" data-name="Layer 1" xmlns="http://www.w3.org/2000/svg" viewBox="0 0 469.75 273.51"><defs><style>.cls-1{opacity:0.6;}.cls-2,.cls-4{fill:#fff;}.cls-3{opacity:0.4;}.cls-4{font-size:89px;font-family:HelveticaNeue, Helvetica Neue;letter-spacing:-0.03em;}</style></defs><title>havas_Cx_ist_logo</title><g class="cls-1"><rect class="cls-2" width="46.6" height="93.3"/></g><g class="cls-3"><rect class="cls-2" y="139.9" width="46.6" height="93.3"/></g><polygon class="cls-2" points="0 93.3 0 139.9 93.3 139.9 93.3 233.2 139.9 233.2 139.9 139.9 139.9 93.3 0 93.3"/><path class="cls-2" d="M194.7-278.5h7.6v24.4h.2c2.5-5.6,9-7.8,14.6-7.8,12.1,0,15.9,7,15.9,16.9v30.4h-7.6v-31.3c0-5.6-3.6-9.3-9.4-9.3-9.2,0-13.7,6.1-13.7,14.5v26.1h-7.6Z" transform="translate(-7.5 278.5)"/><path class="cls-2" d="M282.9-214.9a10.13,10.13,0,0,1-5.5,1.3c-3.9,0-6.4-2.1-6.4-7.1-4.2,4.9-9.8,7.1-16.3,7.1-8.4,0-15.3-3.8-15.3-13,0-10.4,7.8-12.7,15.6-14.2,8.4-1.6,15.6-1.1,15.6-6.8,0-6.6-5.5-7.7-10.3-7.7-6.4,0-11.2,2-11.5,8.7h-7.6c.4-11.4,9.3-15.5,19.5-15.5,8.3,0,17.3,1.9,17.3,12.7v23.9c0,3.6,0,5.2,2.4,5.2a7.88,7.88,0,0,0,2.3-.4l.2,5.8Zm-12.3-23.7c-3,2.1-8.7,2.2-13.8,3.1s-9.3,2.7-9.3,8.3c0,5,4.3,6.8,8.9,6.8,10,0,14.1-6.2,14.1-10.4l.1-7.8Z" transform="translate(-7.5 278.5)"/><path class="cls-2" d="M306.9-214.7h-8.1l-17.2-46.2h8.5l13,38.5h.2l12.6-38.5h7.9Z" transform="translate(-7.5 278.5)"/><path class="cls-2" d="M367.8-214.9a10.13,10.13,0,0,1-5.5,1.3c-3.9,0-6.4-2.1-6.4-7.1-4.2,4.9-9.8,7.1-16.3,7.1-8.4,0-15.3-3.8-15.3-13,0-10.4,7.8-12.7,15.6-14.2,8.4-1.6,15.6-1.1,15.6-6.8,0-6.6-5.5-7.7-10.3-7.7-6.4,0-11.2,2-11.5,8.7h-7.6c.4-11.4,9.3-15.5,19.5-15.5,8.3,0,17.3,1.9,17.3,12.7v23.9c0,3.6,0,5.2,2.4,5.2a7.88,7.88,0,0,0,2.3-.4l.2,5.8Zm-12.3-23.7c-3,2.1-8.7,2.2-13.8,3.1s-9.3,2.7-9.3,8.3c0,5,4.3,6.8,8.9,6.8,10,0,14.1-6.2,14.1-10.4l.1-7.8Z" transform="translate(-7.5 278.5)"/><path class="cls-2" d="M377.8-229.3c.3,6.8,6.1,8.9,12.4,8.9,4.7,0,11.2-1.1,11.2-6.9s-7.5-6.9-15.1-8.6-15.1-4.2-15.1-13c0-9.3,9.2-13.1,17.3-13.1,10.2,0,18.3,3.2,18.9,14.5h-7.6c-.5-5.9-5.7-7.8-10.7-7.8-4.6,0-9.8,1.3-9.8,5.9,0,5.5,8,6.3,15.1,8,7.6,1.7,15.1,4.2,15.1,13.1,0,11-10.3,14.6-19.6,14.6-10.4,0-19.1-4.2-19.5-15.6Z" transform="translate(-7.5 278.5)"/><g class="cls-1"><path class="cls-2" d="M226.1-162.6c-1.2-5.8-5.2-9.2-11.4-9.2-11,0-14.4,8.7-14.4,18.1,0,8.5,3.9,16.9,13.5,16.9,7.3,0,11.7-4.3,12.7-11.3h7.8c-1.7,11.3-8.7,18-20.4,18-14.1,0-21.6-9.8-21.6-23.6s7.1-24.7,21.8-24.7c10.4,0,18.8,4.9,19.9,15.9l-7.9-.1Z" transform="translate(-7.5 278.5)"/><path class="cls-2" d="M251.1-155.6,235-177.5h9.7l11.1,16.2,11.5-16.2h9.1l-15.9,21.3,17.9,24.9h-9.7l-12.8-19.1L243-131.3h-9.2Z" transform="translate(-7.5 278.5)"/></g><text class="cls-4" transform="translate(181.67 230.7)">istanbul</text></svg>